<?xml version="1.0" encoding="utf-8"?>
<svg xmlns="http://www.w3.org/2000/svg" viewBox="0 0 500 500">
  <defs>
    <linearGradient id="gradient_0" gradientUnits="userSpaceOnUse" x1="468.35983" y1="525.23199" x2="500.45776" y2="677.49261" gradientTransform="matrix(0.791266, 0, 0, 0.791266, -151.907883, -159.348633)">
      <stop offset="0" stop-color="#B790F1"/>
      <stop offset="1" stop-color="#8E7FF9"/>
    </linearGradient>
    <linearGradient id="gradient_1" gradientUnits="userSpaceOnUse" x1="466.97046" y1="383.31464" x2="708.40912" y2="564.30646" gradientTransform="matrix(0.791266, 0, 0, 0.791266, -151.907883, -159.348633)">
      <stop offset="0" stop-color="#48FFAA"/>
      <stop offset="1" stop-color="#3998E1"/>
    </linearGradient>
    <linearGradient id="gradient_2" gradientUnits="userSpaceOnUse" x1="488.11926" y1="454.26147" x2="573.4693" y2="553.32324" gradientTransform="matrix(0.791266, 0, 0, 0.791266, -151.907883, -159.348633)">
      <stop offset="0" stop-color="#39A3DC"/>
      <stop offset="1" stop-color="#398CE0"/>
    </linearGradient>
    <linearGradient id="gradient_3" gradientUnits="userSpaceOnUse" x1="667.17615" y1="530.27625" x2="673.07404" y2="547.97491" gradientTransform="matrix(0.791266, 0, 0, 0.791266, -151.907883, -159.348633)">
      <stop offset="0" stop-color="#3B2B86"/>
      <stop offset="1" stop-color="#5041B9"/>
    </linearGradient>
  </defs>
  <path fill="#FAFBFB" d="M 28.004 425.855 C 29.183 431.663 30.691 436.786 33.542 441.993 C 30.671 447.34 30.145 452.917 31.906 458.73 C 32.442 460.5 33.431 462.074 33.96 463.836 L 33.609 464.467 C 28.751 461.976 24.29 458.637 21.112 454.139 C 18.136 449.926 17.05 445.034 17.95 439.951 C 19.096 433.473 22.842 429.473 28.004 425.855 Z" style=""/>
  <path fill="#AEB5F6" d="M 471.729 423.728 C 477.299 429.223 482.232 434.343 482.334 442.782 C 482.407 448.879 479.602 453.992 475.357 458.163 C 462.983 470.321 440.738 477.621 423.489 477.396 C 418.518 477.33 413.367 476.699 408.522 475.588 C 403.947 474.537 398.191 471.882 393.515 472.18 C 389.085 472.461 378.581 476.163 373.477 477.486 C 366.077 479.405 358.46 480.761 350.947 482.145 C 342.425 483.644 333.871 484.946 325.289 486.052 C 316.706 487.158 308.103 488.066 299.478 488.777 C 290.853 489.487 282.218 490 273.57 490.314 C 264.922 490.628 256.271 490.743 247.617 490.66 C 239.198 490.657 230.782 490.466 222.37 490.085 C 213.959 489.706 205.56 489.136 197.173 488.379 C 188.787 487.622 180.423 486.677 172.078 485.545 C 163.735 484.413 155.42 483.094 147.136 481.589 C 139.217 480.096 131.252 478.608 123.454 476.571 C 117.809 475.098 111.423 472.265 105.658 471.795 C 100.862 471.405 95.382 474.17 90.649 475.184 C 71.826 479.217 48.812 477.682 33.609 464.467 L 33.96 463.836 C 33.431 462.074 32.442 460.5 31.906 458.73 C 30.145 452.917 30.671 447.34 33.542 441.993 C 46.023 460.891 69.078 467.091 90.1 459.797 C 96.141 457.701 102.008 453.132 108.165 451.845 C 113.685 450.692 126.051 451.341 132.06 451.546 C 139.914 451.813 147.77 455.858 155.258 458.132 C 164.16 460.83 173.151 463.19 182.23 465.21 C 244.944 479.045 320.113 475.039 375.46 439.729 C 381.444 446.582 387.474 452.538 395.741 456.551 C 408.597 462.791 423.652 464.477 437.253 459.675 C 456.444 452.901 463.514 441.086 471.729 423.728 Z" style=""/>
  <path fill="#1D1245" d="M 28.004 425.855 C 26.928 419.8 28.357 412.411 30.563 406.745 C 33.59 398.967 41.451 389.147 49.255 385.804 C 49.507 385.695 49.769 385.606 50.015 385.484 C 50.99 385 51.342 384.825 51.661 383.777 C 49.448 379.743 45.677 375.979 42.966 372.21 C 38.146 365.512 34.223 358.817 30.192 351.648 C 26.403 344.909 23.461 337.261 20.701 330.035 C 20.169 328.626 19.649 327.213 19.144 325.794 C 18.639 324.376 18.147 322.953 17.669 321.524 C 17.193 320.097 16.728 318.664 16.28 317.227 C 15.831 315.789 15.396 314.348 14.975 312.902 C 14.554 311.457 14.147 310.007 13.753 308.553 C 13.361 307.099 12.983 305.642 12.62 304.18 C 12.255 302.72 11.906 301.255 11.57 299.786 C 11.235 298.319 10.915 296.848 10.608 295.372 C 10.302 293.899 10.009 292.422 9.732 290.942 C 9.455 289.462 9.191 287.979 8.943 286.494 C 8.695 285.009 8.461 283.521 8.241 282.031 C 8.022 280.542 7.817 279.05 7.627 277.556 C 7.437 276.061 7.263 274.566 7.101 273.069 C 6.94 271.572 6.794 270.074 6.663 268.573 C 6.531 267.073 6.415 265.573 6.313 264.07 C 6.212 262.568 6.124 261.065 6.051 259.56 C 5.979 258.056 5.921 256.551 5.878 255.046 C 5.836 253.541 5.807 252.035 5.794 250.529 C 5.781 249.024 5.782 247.519 5.797 246.012 C 5.814 244.507 5.844 243.001 5.89 241.497 C 5.936 239.991 5.996 238.487 6.071 236.983 C 6.146 235.479 6.236 233.976 6.34 232.473 C 6.445 230.971 6.564 229.47 6.698 227.971 C 6.832 226.471 6.981 224.972 7.144 223.475 C 7.308 221.978 7.486 220.483 7.678 218.989 C 7.871 217.496 8.078 216.005 8.3 214.514 C 8.522 213.026 8.759 211.539 9.009 210.054 C 9.261 208.569 9.526 207.087 9.806 205.607 C 10.086 204.127 10.382 202.651 10.69 201.177 C 10.999 199.704 11.323 198.234 11.661 196.766 C 11.999 195.299 12.351 193.835 12.717 192.374 C 13.084 190.914 13.465 189.458 13.86 188.003 C 14.409 186.051 14.98 184.106 15.577 182.167 C 16.173 180.231 16.795 178.3 17.439 176.377 C 18.084 174.455 18.752 172.541 19.444 170.635 C 20.137 168.73 20.853 166.833 21.592 164.944 C 22.331 163.056 23.094 161.177 23.88 159.309 C 24.667 157.44 25.476 155.581 26.308 153.731 C 27.14 151.883 27.996 150.044 28.874 148.217 C 29.752 146.389 30.653 144.572 31.576 142.767 C 32.5 140.962 33.446 139.169 34.413 137.386 C 35.382 135.604 36.372 133.835 37.384 132.078 C 38.396 130.321 39.43 128.577 40.485 126.845 C 41.54 125.114 42.617 123.396 43.715 121.691 C 44.814 119.987 45.933 118.296 47.074 116.619 C 48.213 114.943 49.375 113.28 50.555 111.632 C 51.738 109.985 52.939 108.352 54.161 106.734 C 55.383 105.116 56.626 103.514 57.888 101.927 C 59.15 100.34 60.432 98.768 61.732 97.213 C 63.035 95.658 64.355 94.119 65.694 92.596 C 67.034 91.076 68.392 89.57 69.77 88.081 C 71.146 86.592 72.542 85.121 73.955 83.667 C 75.368 82.214 76.799 80.777 78.249 79.36 C 79.699 77.942 81.165 76.541 82.649 75.16 C 84.134 73.778 85.634 72.415 87.153 71.071 C 88.67 69.726 90.205 68.402 91.756 67.095 C 93.307 65.789 94.874 64.502 96.457 63.235 C 98.04 61.968 99.638 60.721 101.253 59.493 C 102.867 58.266 104.496 57.059 106.14 55.872 C 107.784 54.685 109.443 53.519 111.116 52.373 C 112.788 51.228 114.475 50.103 116.177 48.999 C 117.878 47.896 119.593 46.814 121.321 45.752 C 123.049 44.693 124.789 43.653 126.543 42.635 C 128.297 41.618 130.063 40.623 131.842 39.648 C 140.663 34.729 150.524 30.631 159.951 27.017 C 161.548 26.4 163.149 25.802 164.758 25.22 C 166.366 24.637 167.98 24.072 169.599 23.522 C 171.219 22.972 172.845 22.44 174.475 21.924 C 176.106 21.408 177.742 20.908 179.381 20.426 C 181.022 19.943 182.668 19.478 184.318 19.028 C 185.968 18.579 187.624 18.148 189.282 17.734 C 190.943 17.319 192.605 16.921 194.273 16.54 C 195.941 16.16 197.611 15.795 199.286 15.449 C 200.961 15.103 202.639 14.774 204.32 14.462 C 206.003 14.15 207.688 13.855 209.375 13.577 C 211.062 13.301 212.752 13.041 214.446 12.797 C 216.139 12.554 217.834 12.329 219.531 12.121 C 221.229 11.912 222.928 11.722 224.63 11.549 C 226.331 11.376 228.035 11.221 229.74 11.082 C 231.443 10.945 233.149 10.823 234.857 10.72 C 236.564 10.617 238.272 10.53 239.981 10.463 C 241.691 10.394 243.4 10.344 245.11 10.311 C 246.819 10.277 248.53 10.262 250.24 10.263 C 251.95 10.265 253.66 10.285 255.37 10.322 C 257.08 10.358 258.789 10.414 260.498 10.486 C 262.207 10.558 263.914 10.647 265.621 10.754 C 267.329 10.862 269.034 10.986 270.739 11.128 C 272.443 11.269 274.146 11.429 275.848 11.605 C 277.548 11.783 279.247 11.978 280.944 12.189 C 282.642 12.401 284.337 12.631 286.028 12.877 C 287.721 13.124 289.411 13.388 291.098 13.668 C 292.785 13.951 294.469 14.249 296.149 14.564 C 297.83 14.88 299.508 15.213 301.182 15.562 C 302.856 15.914 304.527 16.281 306.193 16.664 C 307.86 17.049 309.521 17.451 311.181 17.869 C 312.839 18.288 314.493 18.724 316.142 19.176 C 317.791 19.628 319.435 20.098 321.075 20.583 C 337.851 25.456 354.309 32.824 369.509 41.384 C 409.892 64.125 442.187 95.875 464.708 136.552 C 465.667 138.277 466.604 140.013 467.517 141.762 C 468.433 143.51 469.323 145.272 470.192 147.044 C 471.06 148.816 471.906 150.599 472.727 152.392 C 473.548 154.188 474.347 155.992 475.122 157.807 C 475.897 159.621 476.647 161.447 477.373 163.281 C 478.102 165.116 478.804 166.96 479.484 168.812 C 480.162 170.665 480.816 172.528 481.447 174.396 C 482.078 176.267 482.683 178.145 483.264 180.03 C 483.845 181.917 484.403 183.81 484.934 185.71 C 485.466 187.61 485.974 189.518 486.455 191.432 C 486.938 193.345 487.395 195.265 487.827 197.189 C 488.258 199.115 488.665 201.047 489.046 202.982 C 489.427 204.919 489.784 206.86 490.115 208.804 C 490.446 210.75 490.752 212.7 491.031 214.653 C 491.312 216.607 491.567 218.563 491.795 220.523 C 492.024 222.484 492.228 224.446 492.406 226.411 C 492.583 228.377 492.735 230.345 492.861 232.313 C 492.988 234.283 493.09 236.254 493.164 238.225 C 493.238 240.198 493.288 242.171 493.31 244.144 C 493.335 246.116 493.332 248.089 493.305 250.064 C 493.276 252.037 493.222 254.008 493.143 255.98 C 493.064 257.952 492.959 259.923 492.827 261.891 C 492.696 263.861 492.539 265.829 492.357 267.793 C 492.175 269.759 491.967 271.72 491.733 273.68 C 491.5 275.639 491.241 277.596 490.956 279.549 C 490.671 281.501 490.361 283.45 490.025 285.394 C 489.69 287.339 489.33 289.279 488.944 291.214 C 488.557 293.149 488.146 295.079 487.709 297.004 C 487.274 298.928 486.812 300.848 486.325 302.759 C 485.838 304.672 485.326 306.577 484.79 308.477 C 484.254 310.376 483.694 312.268 483.107 314.152 C 482.522 316.037 481.911 317.913 481.277 319.782 C 478.987 326.579 476.494 333.608 473.601 340.169 C 470.803 346.516 463.359 358.681 462.558 364.64 C 461.55 372.155 468.052 381.067 470.708 387.988 C 475.067 399.337 475.058 412.11 471.729 423.728 C 463.514 441.086 456.444 452.901 437.253 459.675 C 423.652 464.477 408.597 462.791 395.741 456.551 C 387.474 452.538 381.444 446.582 375.46 439.729 C 320.113 475.039 244.944 479.045 182.23 465.21 C 173.151 463.19 164.16 460.83 155.258 458.132 C 147.77 455.858 139.914 451.813 132.06 451.546 C 126.051 451.341 113.685 450.692 108.165 451.845 C 102.008 453.132 96.141 457.701 90.1 459.797 C 69.078 467.091 46.023 460.891 33.542 441.993 C 30.691 436.786 29.183 431.663 28.004 425.855 Z" style=""/>
  <path fill="#6360E6" d="M 212.841 158.57 C 218.162 156.095 227.825 151.721 233.744 153.831 C 235.248 154.367 236.418 155.437 237.063 156.903 C 237.387 157.64 237.587 158.384 237.69 159.181 C 227.974 153.983 222.441 158.925 212.841 158.57 Z" style=""/>
  <path fill="#D999E6" d="M 212.841 158.57 C 222.441 158.925 227.974 153.983 237.69 159.181 C 229.618 174.246 205.202 174.287 190.151 177.152 C 180.319 179.024 170.659 181.407 161.356 185.151 C 175.27 173.645 195.754 164.35 212.841 158.57 Z" style=""/>
  <path fill="#6360E6" d="M 37.297 291.476 C 42.26 294.606 47.292 297.765 52.881 299.657 C 64.546 303.605 77.439 303.074 88.467 297.518 C 103.14 290.127 112.25 276.14 117.243 260.888 C 118.103 267.151 119.118 273.285 120.446 279.465 L 120.116 280.181 C 118.308 284.195 117.465 288.671 115.742 292.75 C 111.15 303.627 100.926 313.773 89.919 318.112 C 80.503 321.824 69.888 322.009 60.574 317.922 C 56.66 316.204 52.657 313.762 49.406 310.997 C 47.812 309.642 40.948 301.852 39.85 301.647 C 38.376 298.616 37.925 294.78 37.297 291.476 Z" style=""/>
  <path fill="url(#gradient_0)" d="M 131.675 304.684 C 135.124 309.357 138.549 313.862 142.761 317.896 C 155.674 330.265 171.58 337.672 189.681 337.144 C 206.842 336.645 221.455 327.911 231.526 314.243 C 234.848 309.733 237.505 304.273 241.8 300.593 C 247.27 295.907 256.829 294.844 263.5 292.294 C 270.507 289.614 277.23 285.768 283.235 281.283 C 298.801 269.656 309.931 253.428 320.606 237.474 C 324.573 231.544 328.445 224.762 333.376 219.611 C 336.578 216.266 340.725 213.923 345.463 213.948 C 348.249 213.964 351.026 214.817 352.982 216.876 C 357.465 221.588 356.146 231.025 356.076 237.055 C 356.103 240.243 355.523 246.007 356.744 248.829 C 357.806 264.472 369.553 279.754 381.021 289.553 C 381.507 289.969 381.331 289.828 381.919 290.178 L 383.334 291.665 C 382.962 294.371 380.333 298.148 378.947 300.581 C 370.064 316.174 359.482 330.466 345.048 341.379 C 302.975 373.189 241.151 380.853 190.079 373.511 C 151.046 367.901 102.731 349.814 74.794 321.345 L 74.293 321.351 C 64.266 321.381 53.793 316.417 46.762 309.379 C 45.343 307.961 42.957 304.63 41.258 303.863 C 41.163 305.66 42.549 307.89 42.859 309.767 C 43.859 315.837 48.031 324.991 50.69 330.654 C 51.645 332.686 57.314 343.092 57.406 344.381 L 57.115 344.771 C 55.183 341.4 53.371 337.968 51.678 334.47 C 49.985 330.972 48.417 327.42 46.974 323.813 C 45.53 320.206 44.213 316.554 43.025 312.854 C 41.835 309.156 40.778 305.419 39.85 301.647 C 40.948 301.852 47.812 309.642 49.406 310.997 C 52.657 313.762 56.66 316.204 60.574 317.922 C 69.888 322.009 80.503 321.824 89.919 318.112 C 100.926 313.773 111.15 303.627 115.742 292.75 C 117.465 288.671 118.308 284.195 120.116 280.181 L 120.446 279.465 C 123.364 289.149 126.709 295.881 131.675 304.684 Z" style=""/>
  <path fill="#6360E6" d="M 131.675 304.684 C 135.124 309.357 138.549 313.862 142.761 317.896 C 155.674 330.265 171.58 337.672 189.681 337.144 C 206.842 336.645 221.455 327.911 231.526 314.243 C 234.848 309.733 237.505 304.273 241.8 300.593 C 247.27 295.907 256.829 294.844 263.5 292.294 C 270.507 289.614 277.23 285.768 283.235 281.283 C 298.801 269.656 309.931 253.428 320.606 237.474 C 324.573 231.544 328.445 224.762 333.376 219.611 C 336.578 216.266 340.725 213.923 345.463 213.948 C 348.249 213.964 351.026 214.817 352.982 216.876 C 357.465 221.588 356.146 231.025 356.076 237.055 C 354.604 233.936 352.092 230.93 348.74 229.822 C 345.571 228.775 342.101 229.431 339.241 231.041 C 336.223 232.74 333.887 235.564 331.912 238.363 C 328.3 243.487 325.464 249.27 322.427 254.754 C 315.035 268.098 307.109 282.46 296.552 293.577 C 288.194 302.378 279.459 308.788 268.029 313.138 C 262.523 315.234 255.638 316.19 251.137 320.196 C 246.325 324.479 244.086 331.389 240.27 336.519 C 225.89 355.849 202.735 362.858 179.628 357.056 C 162.975 352.874 149.307 341.286 140.632 326.703 C 136.866 320.374 132.677 312.031 131.675 304.684 Z" style=""/>
  <path fill="url(#gradient_1)" d="M 326.429 50.31 C 334.942 53.633 343.536 56.825 351.701 60.958 C 353.961 62.118 356.199 63.319 358.415 64.561 C 360.632 65.804 362.825 67.085 364.993 68.407 C 367.163 69.728 369.308 71.09 371.428 72.49 C 373.549 73.891 375.643 75.328 377.709 76.804 C 379.777 78.28 381.818 79.793 383.83 81.344 C 385.843 82.895 387.827 84.482 389.781 86.103 C 391.735 87.726 393.66 89.384 395.554 91.077 C 397.449 92.77 399.312 94.496 401.143 96.257 C 402.975 98.018 404.773 99.811 406.54 101.637 C 408.306 103.463 410.038 105.321 411.736 107.21 C 413.435 109.099 415.099 111.018 416.727 112.968 C 418.357 114.918 419.95 116.896 421.507 118.903 C 423.063 120.912 424.583 122.947 426.065 125.01 C 427.548 127.074 428.992 129.163 430.399 131.279 C 431.805 133.394 433.173 135.534 434.501 137.7 C 435.83 139.865 437.119 142.054 438.367 144.266 C 437.401 148.343 441.46 153.801 443.13 157.528 C 450.831 174.712 456.401 195.092 452.611 213.906 C 451.124 221.295 448.403 227.928 445.258 234.73 C 441.182 243.548 436.606 251.46 430.67 259.174 C 426.142 263.785 420.542 267.421 414.3 269.186 C 407.892 270.996 400.593 270.761 394.729 267.377 C 385.496 262.047 383.308 252.991 380.698 243.491 C 380.043 233.268 380.534 223.065 380.019 212.856 C 377.763 204.083 373.112 197.642 365.244 193.01 C 364.708 192.693 364.165 192.392 363.613 192.101 C 363.062 191.813 362.506 191.537 361.941 191.276 C 361.376 191.016 360.806 190.769 360.228 190.536 C 359.652 190.303 359.07 190.086 358.481 189.883 C 357.894 189.68 357.301 189.492 356.703 189.318 C 356.107 189.145 355.505 188.986 354.899 188.842 C 354.295 188.699 353.686 188.571 353.074 188.459 C 352.463 188.346 351.848 188.248 351.232 188.166 C 350.616 188.084 349.997 188.018 349.377 187.967 C 348.757 187.916 348.136 187.881 347.515 187.86 C 346.893 187.84 346.271 187.837 345.649 187.848 C 345.026 187.859 344.405 187.886 343.785 187.928 C 343.165 187.971 342.546 188.03 341.928 188.102 C 341.311 188.176 340.696 188.265 340.082 188.369 C 339.469 188.473 338.859 188.594 338.252 188.729 C 337.644 188.865 337.04 189.014 336.44 189.179 C 316.646 194.545 306.963 214.782 296.198 230.409 C 287.905 242.449 278.403 254.748 265.814 262.5 C 259.975 266.096 253.747 268.647 247.258 270.799 C 235.211 274.792 226.582 276.398 219.912 288.212 C 214.021 298.648 208.901 306.805 196.694 310.253 C 186.972 312.998 177.389 311.503 168.634 306.567 C 157.217 300.131 149.155 287.983 145.737 275.533 C 145.609 275.083 145.5 274.626 145.41 274.165 C 141.568 259.357 141.858 243.579 149.67 230.041 C 164.377 204.556 189.779 204.164 215.51 199.946 C 220.461 199.133 225.411 197.808 230.26 196.52 C 239.433 193.239 246.971 189.051 253.823 182.059 L 255.053 181.9 C 255.925 182.409 255.976 182.605 256.447 183.518 L 256.829 183.591 C 258.847 182.917 259 181.313 260.08 179.761 C 261.508 177.713 263.876 180.03 265.946 179.637 L 266.251 179.109 C 265.944 178.503 265.624 177.902 265.291 177.308 L 265.77 176.607 C 266.256 176.428 266.712 176.125 267.226 176.072 C 268.513 175.94 272.131 179.482 274.876 179.192 C 275.685 179.107 276.259 178.722 276.76 178.072 C 279.122 175.006 280.303 174.567 282.702 172.157 C 283.691 171.166 287.269 163.83 287.967 162.173 C 288.817 160.15 291.093 154.553 293.448 154.408 C 294.592 154.338 295.765 154.536 296.838 154.033 C 297.782 153.59 298.031 154.157 298.802 153.949 C 299.363 153.798 300.29 152.279 300.591 151.806 C 303.003 148.006 304.688 145.811 308.571 143.49 C 309.546 142.907 309.92 142.693 310.473 141.671 C 310.532 141.562 310.589 141.452 310.645 141.342 L 313.273 141.965 C 314.789 139.904 320.23 131.893 322.005 130.981 C 323.944 129.983 325.825 129.916 327.556 128.411 L 327.649 122.874 C 328.595 121.671 330.309 121.025 331.648 120.33 C 332.012 119.504 331.714 119.247 331.451 118.415 C 334.125 113.319 336.025 107.608 338.178 102.257 C 338.963 100.306 339.617 98.027 340.714 96.255 C 341.496 94.99 342.514 94.433 343.891 94.099 C 344.616 93.923 345.007 93.87 345.559 93.324 C 345.617 91.774 345.501 90.263 345.032 88.771 C 344.119 85.874 341.992 83.444 340.742 80.692 C 338.53 75.821 338.454 70.626 335.099 66.065 C 334.981 66.008 334.861 65.951 334.743 65.892 C 334.589 65.814 334.437 65.73 334.283 65.653 C 332.562 64.792 331.745 62.333 330.978 60.651 L 330.965 60.769 L 330.636 60.052 C 328.041 58.645 325.116 56.068 323.18 53.82 C 322.494 53.024 321.932 52.454 322.015 51.397 C 323.771 51.18 324.716 50.463 326.429 50.31 Z" style=""/>
  <path fill="#FAFBFB" d="M 393.323 212.16 C 394.506 212.097 395.679 212.032 396.831 212.363 C 398.842 212.942 400.266 214.355 401.221 216.179 C 403.371 220.29 403.166 230.04 401.668 234.439 C 400.829 236.903 399.525 237.755 397.268 238.901 C 396.228 239.008 394.834 239.288 393.813 239.028 C 392.1 238.595 390.708 237.448 389.726 236.002 C 387.002 231.984 387.466 223.087 388.587 218.443 C 389.372 215.195 390.522 213.884 393.323 212.16 Z" style=""/>
  <path fill="#4FFCAD" d="M 145.41 274.165 C 141.568 259.357 141.858 243.579 149.67 230.041 C 164.377 204.556 189.779 204.164 215.51 199.946 C 220.461 199.133 225.411 197.808 230.26 196.52 C 229.731 197.361 228.851 197.685 227.9 197.981 C 227.444 198.123 226.955 198.138 226.486 198.171 C 225.98 198.729 225.506 200.47 225.42 200.544 C 224.682 201.177 224.149 199.725 223.6 201.2 C 224.878 202.567 227.275 201.973 228.193 203.009 C 228.315 203.145 228.442 203.279 228.563 203.419 C 228.707 203.585 228.835 203.767 228.989 203.926 C 230.613 205.607 233.409 204.851 234.639 206.199 C 234.061 206.614 233.881 206.523 233.193 206.558 L 233.181 207.529 C 232.384 207.397 232.773 207.53 232.025 207.104 L 232.096 207.716 C 233.284 208.173 235.082 208.613 235.952 209.553 C 234.692 210.305 230.117 211.506 229.806 212.478 C 229.291 214.098 228.898 216.098 228.719 217.789 C 225.211 219.436 222.041 220.508 218.197 221.012 C 214.452 221.503 212.24 227.014 209.909 228.278 C 209.044 228.748 200.266 229.992 199.238 229.965 C 198.393 229.942 197.848 229.658 197.082 229.374 C 196.601 229.197 196.107 229.058 195.619 228.898 C 195.39 228.823 195.161 228.741 194.931 228.668 C 194.246 228.451 194.523 228.489 193.862 228.535 C 193.096 229.701 193.225 231.173 193.208 232.523 C 193.184 234.476 191.98 237.201 190.567 238.564 C 187.425 241.591 183.569 243.993 180.239 246.829 C 176.878 249.69 173.957 252.986 170.34 255.537 C 170.159 255.663 169.996 255.822 169.799 255.922 C 167.861 256.91 163.439 256.032 161.585 255.063 C 159.066 253.742 157.565 251.27 156.798 248.6 C 155.897 245.464 156.483 242.488 157.338 239.417 C 155.165 238.668 148.741 238.66 146.531 239.381 C 146.383 239.428 146.254 239.519 146.115 239.588 C 145.574 242.352 144.663 245.047 144.261 247.827 C 143.437 253.51 142.9 267.265 146.136 272.107 C 147.396 273.993 148.427 275.104 149.065 277.351 C 147.936 276.027 147.043 274.9 145.41 274.165 Z" style=""/>
  <path fill="#FAFBFB" d="M 179.729 222.084 C 180.888 221.998 182.09 221.883 183.248 222.027 C 186.143 222.385 188.805 223.845 190.468 226.261 C 191.969 228.441 192.743 231.247 192.179 233.87 C 191.852 235.389 191.118 236.306 190.085 237.435 C 187.05 240.754 183.106 243.303 179.681 246.208 C 176.137 249.215 173.063 252.942 169.095 255.394 C 166.961 255.633 165.134 255.63 163.104 254.847 C 160.264 253.755 158.794 251.604 157.613 248.888 C 156.658 246.695 156.421 244.257 157.398 242.025 C 159.732 236.697 174.392 224.109 179.729 222.084 Z" style=""/>
  <path fill="url(#gradient_2)" d="M 149.065 277.351 C 149.122 277.471 149.171 277.599 149.238 277.715 C 153.643 285.511 165.111 292.359 173.613 294.411 C 183.648 296.835 195.408 295.214 201.875 286.378 C 206.598 279.925 208.99 272.574 215.459 267.411 C 228.537 256.975 244.54 259.925 260.415 245.117 C 281.751 225.213 297.666 188.172 321.097 174.15 C 321.8 173.734 322.514 173.333 323.238 172.951 C 323.962 172.569 324.694 172.205 325.436 171.86 C 326.179 171.516 326.929 171.189 327.687 170.879 C 328.445 170.572 329.211 170.283 329.983 170.013 C 330.755 169.742 331.534 169.492 332.319 169.261 C 333.105 169.029 333.895 168.819 334.69 168.627 C 335.486 168.435 336.286 168.263 337.09 168.111 C 337.895 167.959 338.702 167.828 339.512 167.716 C 340.323 167.605 341.137 167.513 341.951 167.442 C 342.767 167.37 343.583 167.32 344.401 167.289 C 345.22 167.259 346.037 167.248 346.855 167.259 C 347.673 167.269 348.491 167.3 349.308 167.35 C 350.125 167.402 350.94 167.473 351.753 167.564 C 352.567 167.656 353.378 167.768 354.185 167.9 C 354.993 168.032 355.797 168.184 356.597 168.357 C 357.396 168.528 358.192 168.72 358.982 168.932 C 367.669 171.175 376.742 177.218 381.276 185.129 C 385.764 192.961 384.013 200.477 381.53 208.509 C 381.124 209.819 380.366 211.216 380.078 212.5 C 380.051 212.618 380.038 212.738 380.019 212.856 C 377.763 204.083 373.112 197.642 365.244 193.01 C 364.708 192.693 364.165 192.392 363.613 192.101 C 363.062 191.813 362.506 191.537 361.941 191.276 C 361.376 191.016 360.806 190.769 360.228 190.536 C 359.652 190.303 359.07 190.086 358.481 189.883 C 357.894 189.68 357.301 189.492 356.703 189.318 C 356.107 189.145 355.505 188.986 354.899 188.842 C 354.295 188.699 353.686 188.571 353.074 188.459 C 352.463 188.346 351.848 188.248 351.232 188.166 C 350.616 188.084 349.997 188.018 349.377 187.967 C 348.757 187.916 348.136 187.881 347.515 187.86 C 346.893 187.84 346.271 187.837 345.649 187.848 C 345.026 187.859 344.405 187.886 343.785 187.928 C 343.165 187.971 342.546 188.03 341.928 188.102 C 341.311 188.176 340.696 188.265 340.082 188.369 C 339.469 188.473 338.859 188.594 338.252 188.729 C 337.644 188.865 337.04 189.014 336.44 189.179 C 316.646 194.545 306.963 214.782 296.198 230.409 C 287.905 242.449 278.403 254.748 265.814 262.5 C 259.975 266.096 253.747 268.647 247.258 270.799 C 235.211 274.792 226.582 276.398 219.912 288.212 C 214.021 298.648 208.901 306.805 196.694 310.253 C 186.972 312.998 177.389 311.503 168.634 306.567 C 157.217 300.131 149.155 287.983 145.737 275.533 C 145.609 275.083 145.5 274.626 145.41 274.165 C 147.043 274.9 147.936 276.027 149.065 277.351 Z" style=""/>
  <path fill="#4FFCAD" d="M 33.666 242.111 C 31.137 223.275 36.96 200.736 42.964 182.834 C 60.429 130.766 100.949 84.097 150.149 59.706 C 188.129 40.876 232.919 31.684 275.177 37.398 C 292.991 39.807 309.474 44.582 326.429 50.31 C 324.716 50.463 323.771 51.18 322.015 51.397 C 321.932 52.454 322.494 53.024 323.18 53.82 C 325.116 56.068 328.041 58.645 330.636 60.052 L 330.965 60.769 L 330.978 60.651 C 331.745 62.333 332.562 64.792 334.283 65.653 C 334.437 65.73 334.589 65.814 334.743 65.892 C 334.861 65.951 334.981 66.008 335.099 66.065 C 338.454 70.626 338.53 75.821 340.742 80.692 C 341.992 83.444 344.119 85.874 345.032 88.771 C 345.501 90.263 345.617 91.774 345.559 93.324 C 345.007 93.87 344.616 93.923 343.891 94.099 C 342.514 94.433 341.496 94.99 340.714 96.255 C 339.617 98.027 338.963 100.306 338.178 102.257 C 336.025 107.608 334.125 113.319 331.451 118.415 C 331.714 119.247 332.012 119.504 331.648 120.33 C 330.309 121.025 328.595 121.671 327.649 122.874 L 327.556 128.411 C 325.825 129.916 323.944 129.983 322.005 130.981 C 320.23 131.893 314.789 139.904 313.273 141.965 L 310.645 141.342 C 310.589 141.452 310.532 141.562 310.473 141.671 C 309.92 142.693 309.546 142.907 308.571 143.49 C 304.688 145.811 303.003 148.006 300.591 151.806 C 300.29 152.279 299.363 153.798 298.802 153.949 C 298.031 154.157 297.782 153.59 296.838 154.033 C 295.765 154.536 294.592 154.338 293.448 154.408 C 291.093 154.553 288.817 160.15 287.967 162.173 C 287.269 163.83 283.691 171.166 282.702 172.157 C 280.303 174.567 279.122 175.006 276.76 178.072 C 276.259 178.722 275.685 179.107 274.876 179.192 C 272.131 179.482 268.513 175.94 267.226 176.072 C 266.712 176.125 266.256 176.428 265.77 176.607 L 265.291 177.308 C 265.624 177.902 265.944 178.503 266.251 179.109 L 265.946 179.637 C 263.876 180.03 261.508 177.713 260.08 179.761 C 259 181.313 258.847 182.917 256.829 183.591 L 256.447 183.518 C 255.976 182.605 255.925 182.409 255.053 181.9 L 253.823 182.059 C 257.155 177.787 259.952 173.472 261.465 168.219 C 263.831 160.006 263.313 150.599 259.042 143.087 C 254.452 135.013 247.161 130.441 238.392 128.035 C 233.108 127.213 227.997 126.945 222.69 127.759 C 201.77 130.961 169.047 148.156 151.851 160.72 C 132.289 175.013 115.136 194.23 105.054 216.402 C 103.845 219.043 102.782 221.741 101.864 224.498 C 100.946 227.255 100.18 230.051 99.566 232.891 C 96.209 248.25 95.568 267.112 78.956 274.464 C 78.333 274.738 77.702 274.989 77.062 275.215 C 76.421 275.443 75.774 275.647 75.119 275.827 C 74.464 276.008 73.803 276.165 73.136 276.296 C 72.47 276.429 71.799 276.538 71.124 276.622 C 70.45 276.705 69.774 276.765 69.095 276.8 C 68.417 276.835 67.738 276.846 67.058 276.832 C 66.379 276.817 65.702 276.779 65.023 276.715 C 64.348 276.652 63.674 276.565 63.004 276.453 C 54.02 275.036 46.213 269.737 40.964 262.399 C 36.872 256.68 34.085 249.147 33.666 242.111 Z" style=""/>
  <path fill="#FAFBFB" d="M 178.878 65.461 C 180.176 65.368 181.466 65.318 182.747 65.601 C 185.823 66.281 188.781 68.231 190.466 70.91 C 190.635 71.173 190.79 71.443 190.931 71.721 C 191.071 72 191.199 72.285 191.312 72.575 C 191.425 72.866 191.523 73.162 191.606 73.463 C 191.69 73.763 191.758 74.068 191.81 74.375 C 191.863 74.682 191.901 74.991 191.923 75.303 C 191.945 75.614 191.951 75.926 191.942 76.238 C 191.933 76.55 191.908 76.861 191.867 77.169 C 191.828 77.48 191.773 77.786 191.701 78.089 C 190.137 84.749 181.381 87.175 175.877 89.765 C 172.274 91.452 168.72 93.239 165.216 95.127 C 161.714 97.016 158.268 99.001 154.877 101.085 C 151.486 103.168 148.158 105.346 144.891 107.619 C 141.625 109.891 138.426 112.255 135.293 114.709 C 129.724 119.09 124.334 125.047 118.307 128.649 C 118.181 128.66 118.053 128.673 117.926 128.682 C 114.507 128.894 111.306 128.421 108.692 126.002 C 105.386 122.941 105.165 119.022 105.014 114.832 C 105.432 114.016 105.855 113.185 106.364 112.421 C 116.236 97.609 160.945 68.83 178.878 65.461 Z" style=""/>
  <path fill="#3A9CDD" d="M 33.666 242.111 C 35.597 243.615 36.722 246.336 38.142 248.326 C 40.634 251.817 44.535 255.25 48.148 257.559 C 53.465 260.959 60.307 262.753 66.547 261.297 C 78.726 258.457 79.238 248.678 80.471 238.394 C 81.019 233.839 81.704 229.365 82.915 224.935 C 85.647 214.948 89.988 205.696 95.32 196.86 C 96.097 195.558 96.889 194.267 97.698 192.986 C 98.507 191.704 99.331 190.433 100.171 189.172 C 101.011 187.91 101.867 186.659 102.737 185.418 C 103.607 184.178 104.493 182.948 105.393 181.73 C 106.294 180.511 107.21 179.303 108.14 178.107 C 109.071 176.91 110.015 175.726 110.974 174.553 C 111.934 173.38 112.907 172.218 113.893 171.069 C 114.882 169.919 115.884 168.783 116.899 167.657 C 117.915 166.533 118.943 165.42 119.986 164.321 C 121.029 163.221 122.085 162.135 123.155 161.061 C 124.225 159.988 125.307 158.927 126.402 157.879 C 127.497 156.832 128.605 155.799 129.726 154.778 C 130.847 153.759 131.979 152.752 133.124 151.759 C 134.271 150.767 135.428 149.789 136.597 148.825 C 137.767 147.862 138.947 146.912 140.14 145.977 C 141.332 145.042 142.536 144.121 143.751 143.217 C 144.966 142.311 146.192 141.42 147.429 140.544 C 148.666 139.669 149.914 138.808 151.172 137.964 C 152.43 137.119 153.697 136.289 154.976 135.475 C 156.255 134.662 157.542 133.864 158.84 133.081 C 160.137 132.299 161.445 131.533 162.761 130.781 C 164.078 130.031 165.404 129.298 166.738 128.58 C 168.073 127.862 169.416 127.16 170.767 126.475 C 172.12 125.79 173.48 125.122 174.848 124.47 C 176.215 123.818 177.592 123.184 178.975 122.566 C 180.359 121.948 181.75 121.346 183.148 120.762 C 184.547 120.178 185.952 119.612 187.365 119.063 C 188.777 118.513 190.196 117.981 191.621 117.466 C 193.047 116.952 194.478 116.454 195.915 115.975 C 197.353 115.495 198.796 115.034 200.244 114.589 C 201.693 114.144 203.148 113.718 204.606 113.309 C 206.066 112.901 207.53 112.51 208.999 112.137 C 216.777 110.222 227.975 107.238 235.256 111.89 C 238.941 114.244 240.564 117.58 241.49 121.683 C 240.822 124.061 239.831 126.028 238.392 128.035 C 233.108 127.213 227.997 126.945 222.69 127.759 C 201.77 130.961 169.047 148.156 151.851 160.72 C 132.289 175.013 115.136 194.23 105.054 216.402 C 103.845 219.043 102.782 221.741 101.864 224.498 C 100.946 227.255 100.18 230.051 99.566 232.891 C 96.209 248.25 95.568 267.112 78.956 274.464 C 78.333 274.738 77.702 274.989 77.062 275.215 C 76.421 275.443 75.774 275.647 75.119 275.827 C 74.464 276.008 73.803 276.165 73.136 276.296 C 72.47 276.429 71.799 276.538 71.124 276.622 C 70.45 276.705 69.774 276.765 69.095 276.8 C 68.417 276.835 67.738 276.846 67.058 276.832 C 66.379 276.817 65.702 276.779 65.023 276.715 C 64.348 276.652 63.674 276.565 63.004 276.453 C 54.02 275.036 46.213 269.737 40.964 262.399 C 36.872 256.68 34.085 249.147 33.666 242.111 Z" style=""/>
  <path fill="#6360E6" d="M 438.367 144.266 C 445.093 155.056 450.322 167.03 454.594 178.99 C 467.879 216.187 470.69 253.338 461.76 291.987 C 460.396 297.691 458.818 303.335 457.031 308.919 C 455.242 314.505 453.248 320.015 451.044 325.449 C 449.059 330.198 446.854 334.843 444.435 339.385 C 440.161 347.496 435.2 355.046 434.906 364.491 C 434.355 382.164 450.422 390.984 448.602 410.749 C 448.548 411.404 448.471 412.055 448.372 412.704 C 448.272 413.353 448.151 413.998 448.007 414.639 C 447.864 415.28 447.698 415.915 447.51 416.545 C 447.324 417.174 447.115 417.797 446.885 418.411 C 446.655 419.027 446.404 419.633 446.133 420.231 C 445.861 420.83 445.568 421.417 445.257 421.995 C 444.946 422.572 444.614 423.14 444.263 423.695 C 443.913 424.25 443.543 424.792 443.155 425.322 C 442.459 426.278 441.706 427.184 440.892 428.042 C 439.908 429.087 438.845 430.045 437.703 430.917 C 436.985 431.465 436.243 431.978 435.477 432.459 C 435.06 432.72 434.637 432.97 434.207 433.21 C 433.778 433.449 433.343 433.678 432.903 433.896 C 432.461 434.114 432.015 434.32 431.565 434.516 C 431.114 434.713 430.657 434.898 430.197 435.07 C 429.737 435.244 429.271 435.404 428.804 435.554 C 428.335 435.705 427.864 435.842 427.388 435.968 C 426.913 436.096 426.435 436.21 425.954 436.312 C 425.473 436.415 424.99 436.506 424.504 436.584 C 424.019 436.662 423.531 436.729 423.042 436.783 C 422.554 436.837 422.064 436.88 421.573 436.909 C 421.082 436.939 420.591 436.957 420.099 436.962 C 419.607 436.967 419.116 436.96 418.624 436.942 C 418.133 436.923 417.643 436.892 417.152 436.847 C 416.662 436.804 416.174 436.748 415.687 436.68 C 415.2 436.612 414.715 436.533 414.231 436.441 C 413.749 436.349 413.268 436.244 412.79 436.128 C 405.478 434.404 398.573 429.176 394.685 422.768 C 388.039 411.813 389.969 396.13 390.071 383.772 C 390.104 379.789 390.374 375.635 389.294 371.759 C 387.766 366.265 383.897 362.184 378.367 360.675 C 378.123 360.608 377.88 360.547 377.632 360.494 C 377.386 360.44 377.138 360.392 376.89 360.351 C 376.64 360.309 376.39 360.276 376.139 360.247 C 375.889 360.218 375.637 360.197 375.386 360.182 C 375.133 360.166 374.881 360.157 374.628 360.155 C 374.376 360.154 374.124 360.157 373.872 360.168 C 373.62 360.179 373.367 360.198 373.116 360.221 C 372.865 360.246 372.615 360.277 372.365 360.312 C 372.115 360.351 371.866 360.394 371.618 360.443 C 371.372 360.494 371.126 360.551 370.881 360.613 C 370.637 360.676 370.393 360.745 370.153 360.819 C 369.912 360.895 369.674 360.976 369.437 361.065 C 369.2 361.152 368.966 361.246 368.734 361.345 C 368.502 361.446 368.273 361.552 368.046 361.662 C 367.82 361.775 367.597 361.892 367.376 362.016 C 367.156 362.139 366.94 362.268 366.726 362.403 C 363.776 364.224 361.618 366.996 360.821 370.392 C 359.236 377.149 363.702 378.438 364.583 383.486 C 365.218 387.13 364.957 391.262 365.001 394.968 C 365.142 401.878 365.155 408.788 365.04 415.698 C 356.849 420.738 348.6 425.307 339.748 429.093 C 291.503 449.734 234.452 450.91 183.896 438.845 C 174.916 436.643 166.046 434.069 157.284 431.119 C 151.815 429.318 146.246 426.828 140.538 425.954 C 133.946 424.945 126.501 425.452 119.801 425.406 C 113.127 425.36 106.312 425.175 99.928 427.415 C 90.388 430.763 81.53 437.591 71.007 437.108 C 64.24 436.795 57.96 433.498 54.368 427.645 C 51.813 423.484 50.895 419.027 52.085 414.272 C 53.263 409.56 56.236 406.048 60.395 403.638 C 68.175 399.132 77.874 398.917 80.725 388.541 C 82.183 383.237 81.212 377.62 78.375 372.949 C 76.146 369.277 72.966 366.186 70.108 363.008 C 65.302 357.663 60.203 351.3 57.115 344.771 L 57.406 344.381 C 57.314 343.092 51.645 332.686 50.69 330.654 C 48.031 324.991 43.859 315.837 42.859 309.767 C 42.549 307.89 41.163 305.66 41.258 303.863 C 42.957 304.63 45.343 307.961 46.762 309.379 C 53.793 316.417 64.266 321.381 74.293 321.351 L 74.794 321.345 C 102.731 349.814 151.046 367.901 190.079 373.511 C 241.151 380.853 302.975 373.189 345.048 341.379 C 359.482 330.466 370.064 316.174 378.947 300.581 C 380.333 298.148 382.962 294.371 383.334 291.665 L 381.919 290.178 C 381.331 289.828 381.507 289.969 381.021 289.553 C 369.553 279.754 357.806 264.472 356.744 248.829 C 358.696 252.376 359.412 262.494 362.571 264.481 C 365.01 264.372 367.132 263.458 369.498 262.988 C 373.662 262.16 378.022 261.862 382.132 260.804 C 383.306 260.5 384.219 260.197 385.184 259.457 C 385.37 256.775 381.171 252.162 381.069 248.733 C 381.063 248.515 381.096 247.721 381.071 247.614 C 380.77 246.336 380.277 245.5 380.132 244.055 L 380.698 243.491 C 383.308 252.991 385.496 262.047 394.729 267.377 C 400.593 270.761 407.892 270.996 414.3 269.186 C 420.542 267.421 426.142 263.785 430.67 259.174 C 436.606 251.46 441.182 243.548 445.258 234.73 C 448.403 227.928 451.124 221.295 452.611 213.906 C 456.401 195.092 450.831 174.712 443.13 157.528 C 441.46 153.801 437.401 148.343 438.367 144.266 Z" style=""/>
  <path fill="#FAFBFB" d="M 63.475 407.27 C 64.609 407.232 65.789 407.26 66.879 407.613 C 68.533 408.148 69.929 409.547 70.634 411.113 C 71.469 412.968 71.385 415.109 70.571 416.954 C 69.505 419.377 67.634 420.256 65.273 421.143 C 63.833 421.188 62.586 421.162 61.283 420.465 C 59.435 419.475 58.014 417.849 57.509 415.79 C 57.455 415.574 57.411 415.355 57.377 415.135 C 57.344 414.915 57.322 414.692 57.311 414.47 C 57.3 414.247 57.3 414.025 57.311 413.801 C 57.323 413.58 57.346 413.358 57.38 413.136 C 57.413 412.916 57.457 412.698 57.513 412.482 C 57.568 412.266 57.635 412.053 57.711 411.843 C 57.789 411.634 57.875 411.429 57.972 411.229 C 58.07 411.027 58.177 410.832 58.293 410.642 C 59.492 408.7 61.354 407.848 63.475 407.27 Z" style=""/>
  <path fill="#FAFBFB" d="M 400.393 388.653 C 401.592 388.512 402.959 388.374 404.147 388.608 C 406.135 389 407.689 390.176 408.693 391.934 C 410.707 395.462 410.331 403.235 409.157 407.042 C 408.478 409.246 407.327 409.992 405.354 411.038 C 404.352 411.193 403.193 411.35 402.179 411.241 C 400.617 411.074 399.058 410.149 398.081 408.936 C 394.837 404.917 396.175 397.342 396.543 392.486 C 397.609 390.79 398.742 389.782 400.393 388.653 Z" style=""/>
  <path fill="url(#gradient_3)" d="M 356.744 248.829 C 358.696 252.376 359.412 262.494 362.571 264.481 C 365.01 264.372 367.132 263.458 369.498 262.988 C 373.662 262.16 378.022 261.862 382.132 260.804 C 383.306 260.5 384.219 260.197 385.184 259.457 C 385.37 256.775 381.171 252.162 381.069 248.733 C 381.063 248.515 381.096 247.721 381.071 247.614 C 380.77 246.336 380.277 245.5 380.132 244.055 L 380.698 243.491 C 383.308 252.991 385.496 262.047 394.729 267.377 C 400.593 270.761 407.892 270.996 414.3 269.186 C 420.542 267.421 426.142 263.785 430.67 259.174 L 431.233 259.497 C 429.929 262.083 422.558 267.091 419.762 267.942 C 419.528 268.013 419.286 268.051 419.051 268.119 C 416.664 268.799 414.493 270.144 412.004 270.417 C 409.969 270.64 407.71 271.385 405.678 271.25 C 402.264 271.023 396.678 268.385 394.073 268.371 C 392.376 268.364 388.427 271.531 386.727 272.429 C 381.747 275.057 374.901 274.295 370.504 277.375 C 370.498 278.353 372.372 280.002 373.098 280.737 C 376.114 283.789 379.343 286.68 382.271 289.813 L 381.919 290.178 C 381.331 289.828 381.507 289.969 381.021 289.553 C 369.553 279.754 357.806 264.472 356.744 248.829 Z" style=""/>
</svg>